<?xml version="1.0" encoding="UTF-8"?>
<svg id="Layer_1" xmlns="http://www.w3.org/2000/svg" version="1.1" viewBox="0 0 841.89 595.28">
  <!-- Generator: Adobe Illustrator 29.1.0, SVG Export Plug-In . SVG Version: 2.1.0 Build 142)  -->
  <defs>
    <style>
      .st0 {
        fill: #fff;
      }
    </style>
  </defs>
  <path d="M480.79,244.07c.5.37,1.52.59,2.33,1.26,7.17,5.93,10.54,17.83,8.38,26.8-.23.96-1.62,3.44-1.69,4.19-.12,1.35.51,1.29-.47,3.05-2.2,3.96-4.31,6.66-7.18,10.15-1.32,1.61-2.43,3.58-3.61,5.06-.44.56-2.19,1.33-2.76,1.93-.3.31-.3,1.03-.67,1.24-.47.28-1.19,0-1.93.42-1.03.57-1,2.12-1.9,2.8-1.38,1.04-4.23,2.14-5.66,3.07-.46.3-1.29,1.99-1.68,2.21-.46.26-1.15.07-1.75.3-.64.25-1.72,1.59-2.51,1.9l.29.58c6.1-.94,12.55-.8,18.46-2.9.73-2.11.91-3.64,2.12-5.58,4.08-6.5,13.72-10.91,20.29-14.36,5.98-3.14,11.97-5.94,18.07-8.65,2.52-1.12,4.02-1.98,7.13-1.91,3.81.08,7.39,3.75,5.86,7.56-.08.2-2.17,3.02-2.48,3.4-1.03,1.26-2.27,2.36-3.6,3.44-9.41,7.67-19.42,11.65-30.76,15.93-.85.32-1.81,1.17-2.7,1.41-1.27.35-3.88.28-4.95.93-.56.35.33,1.62.73,1.92,2.64,2,7.03,3.18,10.29,3.51,10.28,1.02,21.67-4.19,30.48-8.86,3.02-1.6,7.61-3.8,9.89-6.26.6-.64,1-1.85,1.74-2.37.62-.44,1.21-.32,1.43-.48.11-.08.66-1.88.99-2.39,1.07-1.68,3.94-4.01,5.98-4.03s7.36.97,9.23,1.95,3.05,4.38,1.81,6.12c-.21.3-.78.09-.87.19-.11.12,0,1.22-.17,1.75-.27.81-1.64,3.13-2.14,4.03-1.79,3.16-4.2,6.36-5.55,9.7-.04.09-1.58,1.19-.23,1.53.18.05,3.12-.94,3.56-1.12,1.33-.56,2.45-1.5,3.72-2.15,6.61-3.39,12.32-7.64,18.62-11.04,2.66-1.44,4.72-2.18,7.53-3.06.77-.24,1.25-2.05,3.86-2.03,2.09.02,5.79,1.91,5.69,4.29-.03.8-.81,1.25-1.01,1.88-.69,2.23-.84,3.06-1.76,5.29s-3.29,6.27.89,6.49c3.64.19,8.04-2.46,11.23-4.07,3.61-1.82,7.15-3.83,10.77-5.68,4.52-2.31,5.47-2.92,9.14-6.14.54-.47,2.06-.95,2.49-1.31.85-.71.6-3.09,3.08-3.09.71,0,2.41.05,3.1.13,2.17.23,4.73,2.64,4.04,4.96s-4.72,2.99-6.5,4.07-4.63,3.63-5.73,5.43c-.24.39-.94,1.99-1.08,2.45-.19.63.25,1.83.74,2.2.29.22.92.17,1.34.43.6.37,1.09,1.02,1.75,1.18,1.68.4,4.3-.18,6.09-.35,7.28-.7,12.97-2.8,19.67-5.53,1.5-.61,3.44-1.32,5.2-1.9.56-.18,1.27-.03,1.78-.28.61-.3,3-3.95,3.83-4.9,4.92-5.61,9.91-8.42,17.02-10.65,1.68-.53,5.4-.69,7.12-.37,3.08.56,5.44,5.34,4.5,8.17-.51,1.53-3.37,2.96-4.13.57-1.85,1.88-5.52,1.36-4.85-1.76-.9.06-1.89-.11-2.77.01-.37.05-2.2.53-2.57.66-3.28,1.12-8.99,4.82-10.52,7.98-3.11,6.43,4.2,5.42,8.05,4.82,8.11-1.26,17.29-6.51,24.19-10.82,8.05-5.03,14.63-11.59,21.21-18.36,4.97-5.11,9.7-10.72,14.84-15.69.7-.68,2.6-2.37,3.49-2.34.8.03,2.98,1.6,3.38,2.22.54.86.43,1.99,0,2.87-1.72,3.4-4.59,5.8-7.01,8.55-1.88,2.14-4.33,4.92-6,7.21-3.06,4.2-7.49,8.46-10.74,12.83-2.14,2.87-4.09,5.92-6.05,8.84-.73,1.08-6.43,9.13-5.99,9.72.43.06.62.24,1.08.08.9-.32,4.74-2.69,5.77-3.35.7-.45,3.67-2.48,3.7-3.01.02-.41-.33-.95-.3-1.49.06-.99.59-5.3,1.12-5.74,2.32-1.94,3.31,1.07,5,1.42.77.16,2.07.14,2.86.06,3.21-.33,9.71-5.34,13.08-6.89,6.01-2.77,12.98-4.22,19.25-6,2.71-.77,4.98.74,4.83,3.64-.09,1.83-.66,1.39-1.48,2.34-1.02,1.19-1.42,1.9-2.84,2.74-5.89,3.53-17.01,8.18-23.8,9.38-3.42.61-7.77-.73-9.99,2.56.1.91,1.15,1.14,1.52,1.64.66.89.18,1.29,1.59,2.22,8.81,5.8,18.52,4.73,28.39,4.79,5.66.04,11.5-.11,16.78-2.57,3.52-1.64,5.31-2.93,7.62-6.18.73-1.03.85-2.74,2.46-2.27,2.3.67-.34,4.1-.94,5.25-2.27,4.34-3.71,5.89-8.46,7.68-2.78,1.05-5.24,1.05-7.71,1.69-.62.16-1.14,1.01-1.86,1.11-.86.11-2.14-.41-3.47-.26s-1.98.98-2.41,1.07c-.58.12-2.08-.52-2.88-.49-.72.03-1.55.48-2.38.56-1.81.16-3.34-.33-4.99-.31-10.32.09-19.31-1.17-27.14-8.37-.67-.61-.65-1.83-2.18-1.84-.39.07-.81.87-1.22,1.13-3.51,2.25-7.38,4.71-10.7,7.21-2.02,1.52-3.75,3.81-6.19,4.98-.44.21-1.06-.23-1.59-.17-1.05.13-.96,1.54-2.62.87-1.94-.78-2.78-3.76-1.93-5.62.51-1.11,3.1-3.88,3.92-5.25,1.13-1.89,2.02-4.44,3.1-6.29,2.79-4.78,6.61-9.46,9.65-14.14.16-.25.62-.78.2-.98-1.1-.22-.85.89-1.33,1.31-1.38,1.18-2.9,2.28-4.24,3.69-2.14,2.25-3.1,1.95-5.64,3.46-.77.46-1.2,1.22-1.93,1.59-.88.45-2.96.79-3.72,1.27-1.03.66-1.66,1.39-3.26,2.32-6.8,3.94-19.07,8-26.8,5.68-2.16-.65-3.81-6.57-4.2-6.66-1.06.25-2.28.87-3.16,1.48-.43.3-.62,1.01-.97,1.1s-.88-.27-1.36-.21c-.58.07-3.48,1.57-4.1,2-.28.19-.34.72-.7.84-.82.26-1.97-.15-2.84.11-.51.15-1.48,1.38-2.49,1.62-4.1,1.01-7.91,2.49-12.29,2.98-5.91.65-13.39.8-15.36-6-.38-1.32-.4-2.52-.61-3.8-.07-.42.21-.47-.43-.44-1.77.09-1.78.77-2.82,1.3-5.6,2.87-11.64,7.71-18.07,8.65-1.18.17-4.99.59-6.06.54-3.54-.15-7.04-3.78-6.92-7.35.52-2.41,2.65-5.63,3.04-7.83.1-.56.28-.78-.31-1.18l-5.71,2.51c-9.06,5.21-18.37,14.2-29.02,15.91-.91.15-2.34-.15-3.24-.44-2.4-.77-3.62-2.4-3.61-4.93.02-3.78,5.41-11.73,7.32-15.32.39-.73,1.18-1.45,1.44-2.09,1.16-2.83-1.42-2.27-3.29-3.16-.34,0-.64.09-.93.26-.88.52-3.24,2.71-4.11,3.52-1.4,1.29-2.87,2.98-4.08,4.28-2.01,2.18-9.12,6.16-12.02,7.37-.63.26-1.42.17-1.92.43-.43.23-.54.88-.9,1.15-1.66,1.22-7.13,2.79-9.38,3.54-8.36,2.8-13.49,4.3-22.53,2.3-2.03-.45-4.25-1.79-5.93-2.31-.56-.18-1.49-.02-1.73-.18-.13-.08-.19-.8-.5-1.11-.87-.9-2.31-1.88-3.26-2.76-.42-.39-.59-1.32-1.35-1.29-2.38.4-4.78,1.22-7.14,1.66-3.99.76-8.19,1.06-12.31,1.49-.99.1-3.29-.14-4.02.06-.46.13-.81.69-1.32.77-.53.08-1.13-.3-1.7-.27-2.21.13-4.61.74-6.69,1.27-2.28.58-2.96,2.14-5.78,2.74-3.94.84-7.84,3.31-11.92,4.52-.91.27-1.75.19-2.56.38-3.57.84-7.31,1.28-10.88,2.33-.39.12-.6.65-1,.77-3.13.93-8.62-.34-11.97-.54-2.6-.15-1.85.2-4.4-.59-2.74-.85-5.69-1.32-8.39-2.48-1.09-.47-3.39-2.73-4.49-2.46-.75.19-3.54,4.79-4.89,5.71-.62.42-1.19.33-1.42.48-.45.3.07,1.5-1.67,1.43-.54-.02-2.38-.81-2.64-1.21-.13-.2-1.05-3.36-1.05-3.66,0-1.23,1.76-2.59,2.48-3.69,1.05-1.59,1.81-3.3,2.85-4.81-1.03-2.08-2.35-4-3.31-6.12-1.88-4.12-2.95-7.17-2.27-11.77.21-1.41,1.13-2.12,1.44-3.4-.09-.11-1.77,1.13-2.08,1.29-2.03,1.03-4.13,1.73-6.16,2.65-.58.26-3.59,2.45-2.92,3.1,1.09.4,2.07-.71,2.83-.79.56-.06.92.29,1.82.02.74-.22,1.16-.76,1.67-1.28,1.06,1.64,2.51,1.02,1.84,3.59-.07.25-1.46,2.23-1.68,2.43-.16.14-3.53,1.79-3.74,1.84-.66.15-1.35-.03-1.98.07-1.19.2-1.27.97-3.1.14-.7-.32-.87-.99-1.08-1.04-1.12-.25-2.24-.04-3.43-.91-1.63-1.2-.7-3.28-3.97-1.55-.73.39-1.87,1.84-2,1.88-.73.22-2.81.17-3.39.35-5.35,1.69-11.08,3.66-16.79,4.66-3.04.53-9.11,1.15-11.78-.3-1.37-.75-2.39-2.58-4.07-2.35-.64.09-1.06.55-1.61.71-2.49.72-4.74,2.16-7.3,3.03-4.84,1.65-11.92,3.83-16.95,3.9-7.51.1-13.49-3.86-17.31-10.03-1.56-2.52-3.26-6.76-3.38-9.84-.02-.46.24-.84.27-1.28-1.64-.28-2.69.83-3.84,1.3-2.92,1.19-5.53,2.8-8.13,4.57-.98.67-3.27,2.25-4.34,2.34-.4.03-.87-.3-1.14-.24-.38.08-.45.79-.76.98-.38.23-.99.1-1.45.31s-.77.94-1.4,1.25c-1.36.68-4.52,1.37-5.58,2.05-.65.42-.86,1.19-1.26,1.39-3.89,1.95-7.99,4.87-11.31,7.78-1.09.95-1.98,1.43-2.33,2.9-.56,2.38-2.25,5.63-3.25,8.26-1.73,4.55-3.39,9.85-5.5,14.17-.34.7-2.99,3.66-3.6,4.04-1.14.72-3.09,2-4.27,2.48-6.35,2.59-14.28-1.45-14.1-8.79.09-3.79,2.65-7.22,5.01-9.99,4.87-5.72,11.26-10.22,17.34-14.37,1.31-.89,3.09-.95,4.09-2.37-1.28-1.28-1.82.67-1.95.74-.79.44-2.16.43-3.04.28l-.04,1.13c-.67.58-1.35.04-1.84.05-.2,0-.17.45-.39.58-3.59,2.09-9.52,2.46-13.4,1.68-3.58-.72-3.91-3.05-6.2-4.9-1.68-1.36-2.59.72-4.11,1.77-2.92,2.02-6.6,4.08-9.65,5.92-2.73,1.65-5.76,3.95-9.15,4.08-.96.04-2.79-.59-3.66-1.06-1.46-.8-2.1-4.26-1.71-5.78.12-.46.7-.94.88-1.47.73-2.22,1.46-4.79,2.86-6.75,3.21-4.5,7.2-10.57,10.06-15.26.45-.75,2.67-4.42,1.99-4.92-.63.37-2.57.49-2.87.65-3.72,2.06-7.06,4.29-10.56,6.97-.74.57-2.44,1.35-3.03,1.89-.64.59-1.13,2.31-1.6,2.81-.45.47-1.3.24-2.03.91-1.56,1.45-4.14,5.19-5.57,7.05-2.99,3.88-5.38,8.46-9.67,11.17-1.43.9-1.86,2.02-3.63.46-2.35-2.08,0-5.72,1.25-7.82,1.05-1.77,2.7-3.46,3.73-5.08,2.73-4.31,5.2-8.73,7.86-12.77,1.56-2.37,1.67-4.06,2.69-6.03.33-.63,1.06-.72,1.12-1,.11-.47-.11-.96.15-1.55.21-.5,1.3-1.13,1.76-2.06.53-1.07.89-2.78,1.31-3.98.35-1,1.28-1.68.89-3.07-2.33-.11-4.04,1.94-6.12,2.68l-.32,1.89c-2.1-.46-2.97.45-4.52,1.64-4.25,3.27-8.53,7.41-12.23,11.25-.86.89-2.69,2.06-2.79,2.21-.3.41-.21,1.37-.62,2.03-1.03,1.67-3.33,3.84-4.64,5.62-5.78,7.87-10.35,16.63-15.78,24.74-.49.73-2.66,4.16-3.1,4.25-.41.09-.89-.33-1.26-.12-.35.21-.91,1.66-1.61,1.86-1.41.09-3.45-3.77-3.55-4.91-.19-2.08,3.2-3.85,4.29-5.22,1.42-1.77,2.8-4.45,4.01-6.46,2.18-3.61,4.58-7.84,7.05-11.45,2.89-4.23,5.87-8.43,8.78-12.67,1.09-1.6,2.67-3.35,3.47-5.04,1.12-2.36,1.36-3.65,3.28-5.83,3.17-3.58,5.19-8.01,7.68-11.83.07-.11.86-2.33.87-2.46.17-1.53-1.53-3.05-3-3.06-.99,0-3.55.91-4.72,1.17-2.89.63-3.94.81-6.82,1.99-6.37,2.61-12.47,5.45-17.84,9.76-1.79,1.43-3.64,2.63-5.48,4.14-1.08.89-1.89,2.25-3.03,3.2s-3.22,1.67-3.96,2.5c-.6.68-.69,1.81-1.03,2.2-.3.34-.87.26-1.16.6s-.21,1-.53,1.39c-.24.3-1.02.46-1.38.83-.44.46-1.4,2.26-1.77,2.62-.42.41-1.32.33-1.78.87s-.38,1.44-1.14,2.09c-.52.44-1.61.61-1.72.78-.25.36-.23,1.43-1.03,2.2-2.59,2.5-4.74,5.5-7.42,7.99-7.39,6.86-13.64,16.4-22.64,21.99-1.63,1.01-3.12.82-3.3,3.16-1.61.67-1.36-.36-2.08-.9-.86-.64-2.61-.93-3.8-1.79-3.55-2.56-4.59-5.92-5.21-10.06-1.58-10.56,1.95-18.77,6.19-27.98s9.97-19.56,18.37-26.26c3.24-2.59,4.39-3.04,8.3-4.03.47-.12.88-.72,1.3-.76.23-.02,3.5,1.7,4.2,1.87,1.69.43,3.56-.25,5.08,1.3.64.65.87,2.91.02,3.19-.64.21-3.33.56-4.11.61-.89.06-1.52-.31-2.29-.29-.41.01-4.79.83-5.23.96-.71.22-1.76,1.62-2.27,1.84-1.9.81-2.57.78-4.4,2.35-8.59,7.34-17.72,24.9-19.9,35.89-.92,4.65-1.46,8.31-.22,13,.52,1.95.81,1.65,1.99,2.63.34.28.46.87.8,1.04.81.4,2.2.12,3.02-.22,5.27-2.18,10-7.34,14.13-11.41,11.29-11.11,21.23-23.53,32.81-34.42,7.06-6.64,15.4-12.35,24.13-16.69,3.23-1.61,12.75-4.25,16.26-4.23,3.29.02,7.85,2.54,7.97,6.19.09,2.64-2.41,8.46-3.7,10.93-.51.97-1.62,1.28-1.23,2.73,1.39.14,2-1.44,2.78-2.05,1.99-1.56,4.63-2.52,6.42-3.86,1.47-1.09,2.31-2.29,4.23-3.17,2.6-1.19,6.82-2.89,9.37-1.25,2.35,1.51,2.08,3.02,1.12,5.34-2,4.84-4.53,9.59-6.87,14.27-.21.43-1.2,2.45-.92,2.75.51.53,1.69-1.44,2.35-1.32,4.8-4.49,10.65-7.43,17.05-9.08,2.36-.61,5.69-1.94,8.03-.42,1.09.7,1.91,3.24,1.28,4.31-.08.13-.6.24-.88.72-.72,1.24-1.43,3.49-2.16,4.6-.27.41-2.26,2.74-2.75,3.34-5.01,6.14-8.17,11.65-12.09,18.53-.21.37-.76.41-.94.83-.19.44-.38,2.56-.04,2.58,2.11-.32,4.1-1.36,5.9-2.47,3.13-1.92,13.19-8.51,15.22-11.06.4-.5.53-1.32.91-1.73.98-1.06.56-.32,1.47-1.74,2.15-3.32,5.27-6.36,8.38-8.66.44-.32,2.54-1.79,2.85-1.87,1.97-.54,5.8,1.3,5.34,3.6-.13.65-2.17,3.15-2.79,3.68-1.81,1.54-3.87,2.93-5.58,4.68-.78.8-3.6,3.95-4.02,4.8-.73,1.48-.15,2.99.94,4.17s2.23,1.09,3.68,1.04c7.59-.24,13.6-5.1,19.43-9.12.46-.32,1.26-.28,1.83-.74,1.85-1.49,4.66-6.03,6.58-7.96.35-.35,1.97-1.77,2.44-2.11,1.91-1.36,5.27-1.27,6.11,1.14.44,1.27-.43,1.7-.86,2.65-1.22,2.72-3.32,4.97-5.16,7.48-.37.5-1.48.61-1.17,1.89.35.38,3.61-1.84,4.2-2.11,3.22-1.48,6.42-2.82,9.68-4.41,3.85-1.89,7.9-4.03,11.69-5.93,1.8-.9,3.38-1.52,5.26-2.37,3.69-1.67,3.44-3.72,5.07-6.97.41-.82,1.27-1.53,1.66-2.45.98-2.33,1.2-2.92,2.97-4.96,3.8-4.36,7.38-8.51,12.05-12.03,9.76-7.33,20.88-13.16,33.32-14.01.82-.06,1.18-.59,2.2-.43.66.11,2.99,1.21,3.18,1.85.41,1.39-1.27,2.7-.54,4.19-1.85-.93-3.02,1.25-3.73,1.43s-1.16-.7-1.84-.42c-1.13.47-.8,1.58-.6,2.51l-.78-.9-1.72.6c-.84-.54-.1-1.26-.15-2.05-.31-.28-7.19,1.04-8.23,1.31s-1.49.33-2.45.52c-.5.1-1.07,1.28-1.84,1.34-.49.04-.87-.47-1.13-.45-.18,0-2.05,2.04-2.7,2.51-2.59,1.87-5.32,3.09-7.91,5.01-.64.48-2.04.79-2.54,1.2-.45.37-1.3,2.53-1.43,2.61-.29.18-.95-.07-1.42.19-.4.23-.62,1.22-.96,1.54-1.77,1.61-3.81,3.7-5.5,5.81-.44.54-.92,1.88-1.32,2.2-.5.4-1.15.21-1.28.33-.08.07-.34,1.87-.34,2.16-.02,1.14,1.96-.74,2.5-1.03,1.66-.88,4.91-2.71,6.24-3.89.28-.24.16-.78.58-1.12.82-.66,2.71-.64,3.72-1.19,1.57-.86,3.43-2.48,4.91-3.61,1.6-1.22,3.17-2.42,5.04-3.48.54-.3,1.38-.31,1.96-.67.78-.48,1.03-1.52,1.79-2.03.83-.55,1.9-.44,2.62-.9s.81-1.78,1.92-1.6l.46.74c-.56,1.02-1.56.96-1.19,2.49-2.63-1.19-2.51,2.11-3.95,3.24-.46.36-1.13.38-1.63.73-1.81,1.28-4.36,4.55-6.47,5.86-.75.47-1.8.43-2.33.9-.42.36-.43,1.06-.66,1.25-.26.21-1.03.19-1.47.43-1.19.64-3.16,1.97-4.32,2.73-.47.31-.46,1.17-.9,1.46-.22.15-.74-.08-1.25.17-2.03.96-4.66,3.28-6.69,4.5-.56.34-2.77,1.1-3.14,1.41-.31.25-.33,1.41-.59,1.91-1.06,1.99-1.95,2.15-1.82,4.92.2,4.43,3.41,9.42,7.12,11.61,7.41,4.39,13.06,1.83,20.48-.75,4.72-1.64,11.63-2.8,14.81-6.92,1.77-2.28,2.42-3.92,4.7-6.16,2.91-2.85,6.74-4.96,10-7.62.81-.66,1.25-1.65,1.92-2.19,1.75-1.41,5.23-2.5,7.42-1.86.69.2,3.16,2.32,3.38,3.09.54,1.87-.67,1.75-1.32,2.52-.77.92-1.41,2.21-2.57,2.87-.74.42-1.6.12-2.11.54-.34.29-.33.91-.57,1.19-.8.93-3.46,2.44-4.54,3.39-1.67,1.47-1.68,2.65-3.9,3.74-.42.21-1.11.13-1.33.28s-.16.8-.42,1.05c-.31.31-1.32.35-1.81.69-.38.26-.48.78-.78.98-.56.36-1.57.05-1.68,1.24-.1,1.08,1.08,1.4,1.93,1.5,5.18.57,11.6-1.91,16.69-3.13,2.8-.67,11.82-1.77,13.46-3.87.54-.69.83-1.75,1.44-2.52,2.6-3.27,8.57-6.64,12.3-8.11,4.15-1.63,7.51,1.04,7.27,5.37.63-.7,1.43-1.3,2.35-1.61,4.9-1.68,11.48.26,15.98,2.48.27-.06,2.63-3.9,3.11-4.54,7.72-10.24,14.58-21.44,22.31-31.72,2.45-1.24,5.34-5.11,7.71-6.08,2.77-1.14,2.34,1.39,3.46,1.97,1.71.88,3.31-.09,4.76-1.03,5.91-3.85,16.31-8.74,23.34-10.19,4.84-1,16.3-1.38,20.54,1.34.83.53.99,1.17,1.35,1.43ZM480.6,249.85c-2.91-2.99-9.65-4.36-13.74-4.33-.88,0-1.94.5-2.72.41-.55-.06-1.05-.6-1.5-.59-.42,0-.88.65-1.47.87-1.33.5-2.04-.13-2.85.06-.91.21-3.37,1.75-4.63,2.15-1.11.35-2.83.32-3.89.8-.74.34-.75,1.05-1.1,1.25-.83.48-3.42.81-4.81,1.65-.4.24-.5.81-.97,1.08-1.29.74-3.32.56-4.78,1.98-.3.29-.19.85-.51,1.02-1.25.67-3.33,1.25-4.78,2.2-.47.31-.39,1-.67,1.24-.49.42-3.49,1.38-4.31,2-.53.4-.78,1.38-1.34,1.89-1.52,1.39-4.11,2.72-5.44,4.54-1.05,1.43-1.81,1.92-2.55,2.88-.38.49-.46,1.42-.96,2.04-2.48,3.09-5.96,6.53-8.07,9.92-.53.85-.47,1.78-.91,2.61-.61,1.13-2.31,2.45-2.89,3.28-.52.74-4.01,6.37-3.85,6.73,4.16,3.54,9.93,4.22,14.91,6.23,4.1,1.65,7.49,3.35,11.95,4.49,5.09,1.3,14.72,3.02,19.84,2.79,2.62-.12,3.6-1.3,5.57-2.66,1.85-1.28,3.89-2.75,5.92-4.05,6.15-3.96,12.29-10.07,17.44-15.45,2.92-3.05,5.28-6.84,6.96-10.66,2.45-5.59,2.46-13.47.59-19.22-.18-.55-.72-1.97-.96-2.56-.17-.43-3.01-4.13-3.47-4.6ZM509.09,295.73c3.53-1.95,8.3-4.64,11.7-6.94,1.06-.71,1.86-2.2,2.78-3.09-1.69-1.22-3.98.27-5.8.66-5.48,1.17-10.68,2.28-15.72,4.84-2.68,1.36-6.65,4.51-9.11,6.31-1.38,1.01-5.2,3.3-5.66,4.78-.1.34-.21.65-.11,1l.65.42c2.99-1.32,6.25-1.94,9.31-3.04,3.44-1.23,8.81-3.21,11.94-4.94ZM385.4,305.95c.92-1.22,5.74-7.39,5.42-8.46l-4.02-1.9c-2.74.45-5.03-1.06-7.27,1.11-1.85,1.79-2.25,2.81-1.52,5.35.31,1.07,1.6,4.17,2.12,5.22,2.27,4.58,3.53.97,5.27-1.32ZM439.3,314.03c.76-1.01-3.28-1.18-3.6-1.24-4.02-.78-6.87-1.11-10.86-2.38-4.91-1.57-10.2-3.23-15.19-5.04-2.86-1.04-5.89-2.56-8.74-3.59-.74-.27-2.63-1-3.26-.61-.33.6-.45,1.41-.81,1.98-1.69,2.69-3.69,4.93-5.53,7.39-.74.99-1.38,3.15-2.23,4.24,0,1.37,4.1,3.31,5.29,3.54,2.67.53,3.86.43,6.54,1.66,3.15,1.44,4.71,1.94,8.3,1.71,5.68-.37,15.37-2.15,20.69-3.97,3.03-1.04,6.14-3.11,9.4-3.67ZM210.38,326.49c-1.38,2.17-3.3,1.49-4.39,2.81-.45.54-.31,1.26-.61,1.74-.19.29-.71.41-.97.79-1.13,1.68-1.11,5.02-.93,7.01.06.63.46,2.24,1.08,2.45,1.46.55,2.5-.47,3.56-.75.66-.17,1.35-.06,2.08-.27,1.02-.31,3-2.82,3.52-3.82,1.93-3.68,2.9-7.39,4.31-11.25.4-1.09,1.98-3.73,1.92-4.56-.02-.34-.16-.53-.45-.68l-4.65,1.7c-.67.71-.74,1.72-1.52,2.38s-1.98.19-2.36.86c-.28.5-.05.76-.59,1.6Z"/>
  <path d="M663.85,228.42c1.52,1.07,1.74,3.75,2.73,4.67.32.3.9.25,1.06.48.3.44.03,1.29.2,1.87.11.37.61.63.75,1.01.7,1.83,1.05,3.1-.73,4.44-1.81.54-3.38-2.32-4.81-3.31-.76-.53-1.78-.76-2.48-1.34-1.28-1.07-2.56-6.12-1.52-7.55.97-1.34,3.53-1.17,4.8-.27Z"/>
  <path d="M348.7,251.95c1.65-.13,3.95.89,5.14,2.06.24.23,2.42,2.9,2.5,3.08.25.58.02,1.28.3,1.76.38.66,2.57,1.3,1.35,3.11-2.82,1.87-5.05-1.04-7.16-2.29-.75-.45-1.66-.4-2.28-.95-1.79-1.61-3.21-6.5.15-6.76Z"/>
  <path class="st0" d="M509.09,295.73c-3.13,1.73-8.51,3.72-11.94,4.94-3.06,1.09-6.31,1.71-9.31,3.04l-.65-.42c-.1-.36,0-.67.11-1,.45-1.48,4.27-3.76,5.66-4.78,2.45-1.8,6.43-4.95,9.11-6.31,5.04-2.56,10.24-3.67,15.72-4.84,1.81-.39,4.11-1.88,5.8-.66-.92.88-1.72,2.37-2.78,3.09-3.41,2.3-8.18,4.99-11.7,6.94Z"/>
  <path class="st0" d="M210.38,326.49c.54-.84.31-1.1.59-1.6.38-.68,1.6-.22,2.36-.86s.85-1.67,1.52-2.38l4.65-1.7c.29.16.42.34.45.68.06.83-1.52,3.46-1.92,4.56-1.41,3.86-2.38,7.57-4.31,11.25-.52.99-2.5,3.51-3.52,3.82-.72.22-1.42.1-2.08.27-1.05.28-2.1,1.3-3.56.75-.62-.21-1.02-1.81-1.08-2.45-.18-1.98-.21-5.33.93-7.01.26-.38.78-.5.97-.79.31-.48.17-1.2.61-1.74,1.09-1.32,3-.64,4.39-2.81Z"/>
</svg>